/* XPM */
static char *c3fe03302b424216a3df95d3a9673155GkdwjlyJCIkKyG2G[] = {
/* columns rows colors chars-per-pixel */
"46 42 200 2 ",
"   c None",
".  c #B3AFC2",
"X  c #B3AFC2",
"o  c #B3AFC2",
"O  c #B3AFC2",
"+  c #B3AFC2",
"@  c #B3AFC2",
"#  c #B3AFC2",
"$  c #B3AFC2",
"%  c #B3AFC2",
"&  c #B3AFC2",
"*  c #B3AFC2",
"=  c #B3AFC2",
"-  c #B3AFC2",
";  c #B3AFC2",
":  c #B3AFC2",
">  c #B3AFC2",
",  c #B3AFC2",
"<  c #B3AFC2",
"1  c #B3AFC2",
"2  c #B3AFC2",
"3  c #B3AFC2",
"4  c #B3AFC2",
"5  c #B3AFC2",
"6  c #B3AFC2",
"7  c #B3AFC2",
"8  c #B3AFC2",
"9  c #B3AFC2",
"0  c #B3AFC2",
"q  c #B3AFC2",
"w  c #B3AFC2",
"e  c #B3AFC2",
"r  c #B3AFC2",
"t  c #B3AFC2",
"y  c #B3AFC2",
"u  c #B3AFC2",
"i  c #B3AFC2",
"p  c #B3AFC2",
"a  c #B3AFC2",
"s  c #B3AFC2",
"d  c #B3AFC2",
"f  c #B3AFC2",
"g  c #B3AFC2",
"h  c #B3AFC2",
"j  c #B3AFC2",
"k  c #B3AFC2",
"l  c #B3AFC2",
"z  c #B3AFC2",
"x  c #B3AFC2",
"c  c #B3AFC2",
"v  c #B3AFC2",
"b  c #B3AFC2",
"n  c #B3AFC2",
"m  c #B3AFC2",
"M  c #B3AFC2",
"N  c #B3AFC2",
"B  c #B3AFC2",
"V  c #B3AFC2",
"C  c #B3AFC2",
"Z  c #B3AFC2",
"A  c #B3AFC2",
"S  c #B3AFC2",
"D  c #B3AFC2",
"F  c #B3AFC2",
"G  c #B3AFC2",
"H  c #B3AFC2",
"J  c #B3AFC2",
"K  c #B3AFC2",
"L  c #B3AFC2",
"P  c #B3AFC2",
"I  c #B3AFC2",
"U  c #B3AFC2",
"Y  c #B3AFC2",
"T  c #B3AFC2",
"R  c #B3AFC2",
"E  c #B3AFC2",
"W  c #B3AFC2",
"Q  c #B3AFC2",
"!  c #B3AFC2",
"~  c #B3AFC2",
"^  c #B3AFC2",
"/  c #B3AFC2",
"(  c #B3AFC2",
")  c #B3AFC2",
"_  c #B3AFC2",
"`  c #B3AFC2",
"'  c #B3AFC2",
"]  c #B3AFC2",
"[  c #B3AFC2",
"{  c #B3AFC2",
"}  c #B3AFC2",
"|  c #B3AFC2",
" . c #B3AFC2",
".. c #B3AFC2",
"X. c #B3AFC2",
"o. c #B3AFC2",
"O. c #B3AFC2",
"+. c #B3AFC2",
"@. c #B3AFC2",
"#. c #B3AFC2",
"$. c #B3AFC2",
"%. c #B3AFC2",
"&. c #B3AFC2",
"*. c #B3AFC2",
"=. c #B3AFC2",
"-. c #B3AFC2",
";. c #B3AFC2",
":. c #B3AFC2",
">. c #B3AFC2",
",. c #B3AFC2",
"<. c #B3AFC2",
"1. c #B3AFC2",
"2. c #B3AFC2",
"3. c #B3AFC2",
"4. c #B3AFC2",
"5. c #B3AFC2",
"6. c #B3AFC2",
"7. c #B3AFC2",
"8. c #B3AFC2",
"9. c #B3AFC2",
"0. c #B3AFC2",
"q. c #B3AFC2",
"w. c #B3AFC2",
"e. c #B3AFC2",
"r. c #B3AFC2",
"t. c #B3AFC2",
"y. c #B3AFC2",
"u. c #B3AFC2",
"i. c #B3AFC2",
"p. c #B3AFC2",
"a. c #B3AFC2",
"s. c #B3AFC2",
"d. c #B3AFC2",
"f. c #B3AFC2",
"g. c #B3AFC2",
"h. c #B3AFC2",
"j. c #B3AFC2",
"k. c #B3AFC2",
"l. c #B3AFC2",
"z. c #B3AFC2",
"x. c #B3AFC2",
"c. c #B3AFC2",
"v. c #B3AFC2",
"b. c #B3AFC2",
"n. c #B3AFC2",
"m. c #B3AFC2",
"M. c #B3AFC2",
"N. c #B3AFC2",
"B. c #B3AFC2",
"V. c #B3AFC2",
"C. c #B3AFC2",
"Z. c #B3AFC2",
"A. c #B3AFC2",
"S. c #B3AFC2",
"D. c #B3AFC2",
"F. c #B3AFC2",
"G. c #B3AFC2",
"H. c #B3AFC2",
"J. c #B3AFC2",
"K. c #B3AFC2",
"L. c #B3AFC2",
"P. c #B3AFC2",
"I. c #B3AFC2",
"U. c #B3AFC2",
"Y. c #B3AFC2",
"T. c #B3AFC2",
"R. c #B3AFC2",
"E. c #B3AFC2",
"W. c #B3AFC2",
"Q. c #B3AFC2",
"!. c #B3AFC2",
"~. c #B3AFC2",
"^. c #B3AFC2",
"/. c #B3AFC2",
"(. c #B3AFC2",
"). c #B3AFC2",
"_. c #B3AFC2",
"`. c #B3AFC2",
"'. c #B3AFC2",
"]. c #B3AFC2",
"[. c #B3AFC2",
"{. c #B3AFC2",
"}. c #B3AFC2",
"|. c #B3AFC2",
" X c #B3AFC2",
".X c #B3AFC2",
"XX c #B3AFC2",
"oX c #B3AFC2",
"OX c #B3AFC2",
"+X c #B3AFC2",
"@X c #B3AFC2",
"#X c #B3AFC2",
"$X c #B3AFC2",
"%X c #B3AFC2",
"&X c #B3AFC2",
"*X c #B3AFC2",
"=X c #B3AFC2",
"-X c #B3AFC2",
";X c #B3AFC2",
":X c #B3AFC2",
/* pixels */
"                       .` ` Z             @X:X@X:X@X          OX@X@X@X                      ",
"                    ` ` ` Z Z             @X@X:X@X:X@X        @X@X@X@X                      ",
"                    `  .`  .Z Z             @X@X:X@X:X      @X@X@XoXoXoX                    ",
"                      ` ` Z Z B             oX@X@X:X@X:X    @XoXoX@X^.                      ",
"                      X.` ` Z B Z             @X@X:X@X@X:X@XoXoX^.oX@X                      ",
"                        Z J Z B Z               :X@X@X@X:XoX@X^.oX^.                        ",
"                         .Z Z Z B l             @X:XoXoXoX@XoX^.oX^.                        ",
"                          Z J B h h M             @XoX@X^.@X^.^.^.                          ",
"              ] ] ] ] ] ' Z Z B B a y y y y 4 & 4 oXoX^.^.^.^.^.^.                          ",
"            ] ] ] ] ] ] ' Z Z Z h B a y 4 4 4 4 = B oX^.oX^.^.^.            ] `             ",
"            ]  .] ] ] ] ' Z Z B h h y y y 4 4 , = o B.^.^.^.^.^.            ] ]             ",
"          ] ] ` ] ] ] ] ' C Z Z h h y y y 4 , 4 = . 4 ^.^.^.J.^.          ] ] ]  .          ",
"          ` ` ` ] ] ] ] ` Z Z Z l l l l f f 9 y 9 , & ^.J.^.J.J.J.        ] ] ] X. .        ",
"                          A.M.x.z.f.                    ^.A.^.A.K.A.    ] ] ] ] ` `         ",
"                        A.K.K.M.b.P.                    J.K.A.K.K.K.    ] ] ] ] `           ",
"                      ^.K.A.M.C.A.                        K.A.K.A.A.^.] ] ] ]  .`           ",
"                      A.K.K.K.A.                            A.K.A.A.=.J `  .] ]             ",
"                    ^.J.J.A.J.K.                            A.K.b.b.Z ' ` `  . .            ",
"    ^.@X^.@XoX^.^.oXJ.^.J.J.A.                                b.g...Z Z Z Z  .` ] ] ] ] `   ",
"  oX^.+XoX^.^.^.^.^.^.J.^.J.^.                                b.g.h B B Z Z Z Z ` ] ] ]  .  ",
"@X@XoXoX^.oX^.^.^.oX^.^.J.oX                                    Z M f f l Z Z Z ` T `  . .` ",
"oX@X@XoXoX@X@XoX^.^.^.^.^.z.                                    y f f M f h B Z l Z Z  .` ` ",
"  @X@X@X@X:X@X^.^.oX^.^.oXG G                                 f y f f f h h f Z Z l Z Z Z   ",
"  @XoX@X@X@X@XoX@X@X^.oXa.@ @                                 9 9 y y f l l l Z l ` Z Z     ",
"            @X@XoXoXoX^.H & - I                             9 9 4 y y f                     ",
"            @X:X:X@XoXp., ; - - %.                          4 , 4 4 9                       ",
"          oX:X@X@X:X:X%., - , , I                         , - , , 4 M                       ",
"          :X@X:X:X@X    a u y 4 9 =.                    9 o - - 4 4                         ",
"        @X:X@X:X@XoX    #.y , y 9 L                     X . o ; ;                           ",
"        @X@X:X@X@X        I y y f y =.j.A.A.J.J.^.J.^.^.oXoXoXoXoX:X@X@X@X:X@X:X@X          ",
"          @X@X:XoX        -.y y f f J d.x.A.K.K.A.K.I.I.^.^.^.+XoX@X:X@X:X@X:X@X@X          ",
"            :X@X            #.f f f M q.x.C.C.A.J.K.I.^.^.^.oX^.@X:X@X:X@X:X@X:X            ",
"            :X@X            L B h l Z Z a.A.A.K.K.K.J.J.^.^.oX@X@X@X:X@X@X:X@XoX            ",
"                          6.l h h Z Z J 6.A.K.A.A.K.J.^.^.^.^.^.oX@X@X:X:X@X:X              ",
"                          J l Z Z Z Z l ` i.            ^.^.^.$XoX                          ",
"                        =.M Z Z Z Z  .` ` 3.            oX^.^.@XoX:X                        ",
"                        Z Z J ` ` @.` ` ] ] u.            ^.^.@XoX@X                        ",
"                      -.Z Z Z ` 0.y.` ` ]  .<.            oX^.@XoX@X@X                      ",
"                    q.` Z ` ` ..    <.] ] ] ] y.            ^.^.oX@X@X                      ",
"                    =. .Z ` X.q.    y.] ] ] ] @.            @XoXoX@X@XoX                    ",
"                    q.` X. .+.        3.X.` ] ] y.            oXoX@X@X                      ",
"                      3.` ` 0.        0. .` ] X.@.            +XoX:X@X                      "
};
