/* XPM */
static char *Webp_net_resizeimage[] = {
/* columns rows colors chars-per-pixel */
"21 12 253 2 ",
"   c #B2A3A1",
".  c #C7B4AC",
"X  c #988376",
"o  c #BFA497",
"O  c #BCA293",
"+  c #493E39",
"@  c #0A080D",
"#  c #140F11",
"$  c #211E21",
"%  c #232022",
"&  c #282022",
"*  c #3A2B2D",
"=  c #2F2121",
"-  c #221515",
";  c #180D0C",
":  c #110606",
">  c #131012",
",  c #100D0D",
"<  c #745455",
"1  c #C89497",
"2  c #BD8B8E",
"3  c #AE9B93",
"4  c #B19B8E",
"5  c #B59B8C",
"6  c #B29A8D",
"7  c #3E3837",
"8  c #0C0A0E",
"9  c #211B1D",
"0  c #504548",
"q  c #725352",
"w  c #845652",
"e  c #7B686E",
"r  c #9B919D",
"t  c #A696A1",
"y  c #95868F",
"u  c #7E7077",
"i  c #3D3336",
"p  c #1B1313",
"a  c #0C090A",
"s  c #644749",
"d  c #C99497",
"f  c #BD8B8E",
"g  c #A28A7A",
"h  c #B59B8E",
"j  c #C0A599",
"k  c #534B4B",
"l  c #09070A",
"z  c #433737",
"x  c #685051",
"c  c #9C493D",
"v  c #C34731",
"b  c #BA3E26",
"n  c #9E331E",
"m  c #784E4C",
"M  c #AAA5B4",
"N  c #BCABBA",
"B  c #B7A8B6",
"V  c #B7A8B6",
"C  c #8C7D85",
"Z  c #2F2929",
"A  c #5F4445",
"S  c #C79295",
"D  c #BE8D90",
"F  c #A08676",
"G  c #C9AD9F",
"H  c #9B8881",
"J  c #302A2D",
"K  c #635657",
"L  c #764C49",
"P  c #A93723",
"I  c #C5432A",
"U  c #A93926",
"Y  c #9F3422",
"T  c #B63F29",
"R  c #BE432D",
"E  c #794F4C",
"W  c #B6ADB8",
"Q  c #B8AAB7",
"!  c #B0A3B1",
"~  c #BDAFBE",
"^  c #968A96",
"/  c #574142",
"(  c #C18D90",
")  c #C08D90",
"_  c #AA8F7F",
"`  c #CDB09E",
"'  c #52443F",
"]  c #6B5F64",
"[  c #9A7677",
"{  c #822512",
"}  c #CA4B32",
"|  c #8F2E1F",
" . c #7F2619",
".. c #A13623",
"X. c #892B1A",
"o. c #AB3B27",
"O. c #A33825",
"+. c #9A9295",
"@. c #E1D9DE",
"#. c #C8BDC6",
"$. c #BFB4BD",
"%. c #C2B6C3",
"&. c #5F5055",
"*. c #B48284",
"=. c #C29093",
"-. c #B59886",
";. c #B89A87",
":. c #3A2F2D",
">. c #ADA0AB",
",. c #7D5151",
"<. c #A9361F",
"1. c #A03624",
"2. c #BB422B",
"3. c #903121",
"4. c #933324",
"5. c #A63926",
"6. c #7E2010",
"7. c #C97E71",
"8. c #AB9B9C",
"9. c #E7E1E2",
"0. c #D8CFD4",
"q. c #D7CDD6",
"w. c #B3A9B2",
"e. c #402F30",
"r. c #B68588",
"t. c #C29093",
"y. c #CBAB97",
"u. c #816859",
"i. c #564A4D",
"p. c #C2B9C6",
"a. c #835E5D",
"s. c #B13920",
"d. c #8B2D1D",
"f. c #942E1D",
"g. c #732316",
"h. c #591B13",
"j. c #AF3C26",
"k. c #872B1C",
"l. c #BE3F28",
"z. c #915851",
"x. c #D1D1D6",
"c. c #D8CED4",
"v. c #DCD4DD",
"b. c #A2928D",
"n. c #7D5B54",
"m. c #C08D91",
"M. c #C39093",
"N. c #C7A793",
"B. c #68544B",
"V. c #95868D",
"C. c #CDC2CE",
"Z. c #86777C",
"A. c #AA3C28",
"S. c #993321",
"D. c #8C2D1D",
"F. c #BE442E",
"G. c #6D2014",
"H. c #CB4A33",
"J. c #882E1F",
"K. c #C84328",
"L. c #663D3A",
"P. c #CECCD5",
"I. c #D9D0D9",
"U. c #C6B5B1",
"Y. c #C0A390",
"T. c #A58079",
"R. c #7E595A",
"E. c #C29093",
"W. c #C9AC9B",
"Q. c #786865",
"!. c #B3A5AA",
"~. c #C9BCC6",
"^. c #B6B4BB",
"/. c #8B544E",
"(. c #CC442B",
"). c #862C1D",
"_. c #6B1F11",
"`. c #320804",
"'. c #9B3523",
"]. c #CC4931",
"[. c #A2402E",
"{. c #AEA3A9",
"}. c #D7CFD5",
"|. c #B7A59E",
" X c #9E8473",
".X c #BCA18D",
"XX c #B29185",
"oX c #311E1F",
"OX c #B18285",
"+X c #CCAF9E",
"@X c #9E8C8A",
"#X c #BFB0B4",
"$X c #C7BCC7",
"%X c #D9CFD8",
"&X c #B2AEB4",
"*X c #9C5046",
"=X c #C74128",
"-X c #BD412A",
";X c #B33F29",
":X c #CB4831",
">X c #972D1A",
",X c #7B615D",
"<X c #BFAFA9",
"1X c #AC9283",
"2X c #B69A86",
"3X c #B09684",
"4X c #AE9482",
"5X c #CAA798",
"6X c #352324",
"7X c #956D70",
"8X c #CBAD99",
"9X c #CAB0A3",
"0X c #C8B3AD",
"qX c #CDB9B6",
"wX c #CFBDBC",
"eX c #D9C9C7",
"rX c #B5A8A7",
"tX c #946D66",
"yX c #864E41",
"uX c #7C3A2C",
"iX c #683024",
"pX c #60463C",
"aX c #978274",
"sX c #957B6A",
"dX c #B59A87",
"fX c #CEB09B",
"gX c #CFB09B",
"hX c #C7AB96",
"jX c #D2B09F",
"kX c #5F4847",
"lX c #5F4344",
"zX c #CDAE99",
"xX c #CCAC98",
"cX c #CCAD9A",
"vX c #CCAE9B",
"bX c #CCAD99",
"nX c #CBAC98",
"mX c #D0B19D",
"MX c #BDA796",
"NX c #958578",
"BX c #87786C",
"VX c #A39081",
"CX c #C4A997",
"ZX c #D0B19B",
"AX c #B49987",
"SX c #B49987",
"DX c #CFB29C",
"FX c #C9AE97",
"GX c #C8AD96",
"HX c #D1B29D",
"JX c #997B74",
"KX c #644649",
"LX c white",
/* pixels */
"  . X o O + @ # $ % & * = - ; : > , < 1 2 ",
"3 4 5 6 7 8 9 0 q w e r t y u i p a s d f ",
"g h j k l z x c v b n m M N B V C Z A S D ",
"F G H J K L P I U Y T R E W Q ! ~ ^ / ( ) ",
"_ ` ' ] [ { } |  ...X.o.O.+.@.#.$.%.&.*.=.",
"-.;.:.>.,.<.1.2.3.4.5.6.7.8.9.0.q.w.e.r.t.",
"y.u.i.p.a.s.d.f.g.h.j.k.l.z.x.c.v.b.n.m.M.",
"N.B.V.C.Z.A.S.D.F.G.H.J.K.L.P.I.U.Y.T.R.E.",
"W.Q.!.~.^./.(.)._.`.'.].[.{.}.|. X.XXXoXOX",
"+X@X#X$X%X&X*X=X-X;X:X>X,X<X1X2X3X4X5X6X7X",
"8X9X0XqXwXeXrXtXyXuXiXpXaXsXdXfXgXhXjXkXlX",
"zXxXcXvXbXnXmXMXNXBXVXCXZXAXSXDXFXGXHXJXKX"
};
